<svg xmlns="http://www.w3.org/2000/svg" viewBox="0 0 1920 1080" width="100%" height="100%">
  <rect width="1920" height="1080" fill="#ffffff" opacity="0"/>
  
  <g stroke="#cbd5e1" stroke-width="2" opacity="0.6">
    <line x1="150" y1="250" x2="450" y2="180" />
    <line x1="450" y1="180" x2="750" y2="350" />
    <line x1="750" y1="350" x2="1150" y2="150" />
    <line x1="1150" y1="150" x2="1650" y2="300" />
    <line x1="1650" y1="300" x2="1800" y2="650" />
    <line x1="1800" y1="650" x2="1350" y2="850" />
    <line x1="1350" y1="850" x2="850" y2="900" />
    <line x1="850" y1="900" x2="550" y2="650" />
    <line x1="550" y1="650" x2="150" y2="750" />
    <line x1="150" y1="750" x2="150" y2="250" />
    <line x1="450" y1="180" x2="550" y2="650" />
    <line x1="750" y1="350" x2="1350" y2="850" />
    <line x1="1150" y1="150" x2="850" y2="900" />
    <line x1="750" y1="350" x2="850" y2="900" />
    <line x1="1650" y1="300" x2="1350" y2="850" />
  </g>

  <g stroke="#3b82f6" stroke-width="1.5" opacity="0.4">
      <line x1="750" y1="350" x2="550" y2="650" />
      <line x1="1150" y1="150" x2="1350" y2="850" />
      <line x1="450" y1="180" x2="1150" y2="150" />
  </g>

  <g fill="#94a3b8" opacity="0.8">
    <circle cx="150" cy="250" r="6" />
    <circle cx="450" cy="180" r="8" fill="#3b82f6" />
    <circle cx="750" cy="350" r="10" />
    <circle cx="1150" cy="150" r="7" />
    <circle cx="1650" cy="300" r="9" fill="#3b82f6" />
    <circle cx="1800" cy="650" r="5" />
    <circle cx="1350" cy="850" r="8" />
    <circle cx="850" cy="900" r="12" fill="#3b82f6" />
    <circle cx="550" cy="650" r="7" />
    <circle cx="150" cy="750" r="5" />
  </g>
</svg>
